<svg width="32" height="32" viewBox="0 0 32 32" fill="none" xmlns="http://www.w3.org/2000/svg">
<path d="M0 16C0 7.16344 7.16344 0 16 0C24.8366 0 32 7.16344 32 16C32 24.8366 24.8366 32 16 32C7.16344 32 0 24.8366 0 16Z" fill="#EDEBFE"/>
<path d="M16.3834 14.732C15.3489 14.5234 14.4399 13.9624 13.8412 13.163C13.7451 13.0364 13.6782 12.8933 13.6445 12.7424C13.6107 12.5914 13.6109 12.4357 13.6449 12.2848C13.9404 11.3091 15.6089 10.7656 17.223 11.1247C17.9758 11.2765 18.6582 11.639 19.1753 12.1619C19.3111 12.3095 19.4775 12.4311 19.6649 12.5197C19.8523 12.6083 20.0569 12.6622 20.2672 12.6782C20.4774 12.6942 20.689 12.672 20.8898 12.6129C21.0906 12.5538 21.2767 12.459 21.4373 12.3339C21.5979 12.2088 21.7299 12.0559 21.8256 11.884C21.9214 11.7121 21.979 11.5246 21.9953 11.3322C22.0115 11.1398 21.986 10.9464 21.9202 10.7631C21.8544 10.5798 21.7496 10.4102 21.6119 10.264C20.6586 9.27317 19.3904 8.57988 17.9847 8.28131C17.8994 8.26179 17.8162 8.25984 17.7308 8.24423V7.46363C17.7308 7.07545 17.5622 6.70317 17.2621 6.42869C16.962 6.1542 16.555 6 16.1306 6C15.7062 6 15.2992 6.1542 14.9991 6.42869C14.699 6.70317 14.5304 7.07545 14.5304 7.46363V8.26765C13.6109 8.4295 12.7565 8.8159 12.0576 9.38588C11.3587 9.95585 10.8415 10.6882 10.5608 11.5052C10.4117 12.0335 10.381 12.5839 10.4704 13.1233C10.5599 13.6628 10.7677 14.1801 11.0814 14.6442C12.1136 16.1307 13.7471 17.1831 15.6249 17.5714C16.6599 17.7803 17.569 18.3421 18.1672 19.1424C18.2634 19.2689 18.3305 19.412 18.3644 19.563C18.3983 19.7139 18.3984 19.8696 18.3645 20.0206C18.0669 20.9963 16.3973 21.5379 14.7854 21.1808C14.0249 21.029 13.3366 20.6607 12.8192 20.1289C12.5456 19.8347 12.156 19.6513 11.7352 19.6187C11.3144 19.5861 10.8966 19.707 10.5729 19.955C10.2491 20.2029 10.0456 20.5579 10.0068 20.9425C9.96795 21.3271 10.0969 21.7102 10.3656 22.0082C11.3225 23.0184 12.6052 23.7249 14.029 24.0261C14.1954 24.0631 14.3608 24.0817 14.5272 24.109V24.5364C14.5272 24.9245 14.6958 25.2968 14.9959 25.5713C15.296 25.8458 15.703 26 16.1274 26C16.5518 26 16.9588 25.8458 17.2589 25.5713C17.559 25.2968 17.7276 24.9245 17.7276 24.5364V23.9948C18.5977 23.8043 19.3985 23.4098 20.0511 22.8501C20.7038 22.2905 21.1858 21.585 21.4497 20.8031C21.5985 20.2748 21.6289 19.7243 21.5393 19.1849C21.4497 18.6455 21.2418 18.1282 20.9281 17.6641C19.8963 16.1759 18.2624 15.1218 16.3834 14.732Z" fill="#57009C"/>
</svg>
